<svg xmlns="http://www.w3.org/2000/svg" xmlns:xlink="http://www.w3.org/1999/xlink" width="1200" height="559" viewBox="0 0 1200 559">
  <defs>
    <clipPath id="clip-pedagogie_noir">
      <rect width="1200" height="559"/>
    </clipPath>
  </defs>
  <g id="pedagogie_noir" clip-path="url(#clip-pedagogie_noir)">
    <rect width="1200" height="559" fill="rgba(255,255,255,0)"/>
    <g id="Groupe_3567" data-name="Groupe 3567" transform="translate(-861.722 -165.262)">
      <path id="Tracé_204" data-name="Tracé 204" d="M196.553,308.6a4.1,4.1,0,0,0,4.064-4.064L197.662,179.3l2.217-87.553h70.56a4.1,4.1,0,0,0,4.064-4.064V54.064A4.1,4.1,0,0,0,270.438,50H71.689a4.1,4.1,0,0,0-4.064,4.064V87.681a4.1,4.1,0,0,0,4.064,4.064h70.19L144.1,179.3,141.14,304.532A4.1,4.1,0,0,0,145.2,308.6Zm87.184,0a4.1,4.1,0,0,0,4.064-4.064L287.431,224c0-43.592,28.815-65.388,67.974-65.388a35.837,35.837,0,0,1,6.28.369,3.8,3.8,0,0,0,4.064-3.694V122.407a5.113,5.113,0,0,0-4.064-4.8,55.111,55.111,0,0,0-7.758-.739c-27.707,0-53.2,11.083-67.974,33.617l1.108-28.076a3.591,3.591,0,0,0-3.694-4.064H236.081a4.1,4.1,0,0,0-4.064,4.064l1.478,90.878-1.478,91.247a4.1,4.1,0,0,0,4.064,4.064ZM403.43,211.068c0-39.159,14.407-60.216,42.483-59.477,26.229.369,41.006,22.535,40.636,63.171-.739,40.267-14.777,60.585-41.745,60.585C418.206,275.717,403.43,253.921,403.43,211.068ZM536.421,308.6a4.1,4.1,0,0,0,4.064-4.064l-1.478-90.878,1.478-91.247a4.1,4.1,0,0,0-4.064-4.064H488.4a3.591,3.591,0,0,0-3.694,4.064l.739,16.624c-12.93-15.885-31.4-24.382-55.044-24.382-51.719,0-83.489,44.331-83.489,99.374,0,55.413,28.445,98.266,82.381,98.266,24.012,0,42.853-9.6,56.152-25.859l-.739,18.1a4.1,4.1,0,0,0,4.064,4.064ZM595.9,266.481c12.191-24.012,34.356-67.235,50.98-86.814,8.5-9.974,12.93-12.56,25.86-14.407s26.6-8.127,26.6-23.643c0-9.974-7.389-17.732-17.363-17.732-30.293,0-68.343,86.445-81.642,109.718l-.739-.739,11.822-31.77c5.172-14.038,14.038-39.528,14.038-53.936,0-12.93-7.019-23.274-20.318-23.274-23.274,0-48.394,47.655-60.216,65.018l9.974,6.28c6.65-8.866,24.382-43.592,35.464-43.592,3.694,0,5.172,5.911,5.172,9.236,0,6.28-2.955,14.777-5.172,21.057L547.135,308.6H574.1ZM725.565,99.872a4.1,4.1,0,0,0,4.064-4.064V54.064A4.1,4.1,0,0,0,725.565,50H677.541a4.1,4.1,0,0,0-4.064,4.064V95.808a4.1,4.1,0,0,0,4.064,4.064Zm.369,208.723A4.1,4.1,0,0,0,730,304.532l-1.478-90.878L730,122.407a4.1,4.1,0,0,0-4.064-4.064H677.171a4.1,4.1,0,0,0-4.064,4.064l1.478,91.247-1.478,90.878a4.1,4.1,0,0,0,4.064,4.064Z" transform="translate(1019.925 239.191)"/>
      <path id="Tracé_9254" data-name="Tracé 9254" d="M192.323,21.873c0-7.459-5.026-11.268-13.172-11.268H167.036a.474.474,0,0,0-.476.476l.212,17.563L166.56,47.16a.474.474,0,0,0,.476.476h4.126a.474.474,0,0,0,.476-.476l-.106-13.648h7.723C187.138,33.511,192.323,29.6,192.323,21.873ZM171.586,14.52h7.723c5.237,0,8.2,2.381,8.2,7.459,0,5.5-3.227,7.618-7.988,7.618H171.48v-.741ZM215.758,3.834a.512.512,0,0,0,.265-.635L215.017.29a.428.428,0,0,0-.582-.265l-11.427,5.4a.509.509,0,0,0-.212.635l.635,1.64a.535.535,0,0,0,.635.265Zm3.174,43.8a.474.474,0,0,0,.476-.476V44.144a.474.474,0,0,0-.476-.476h-18.2l-.212-13.807h16.717a.474.474,0,0,0,.476-.476V26.37a.474.474,0,0,0-.476-.476H200.522l.212-11.321h17.775a.474.474,0,0,0,.476-.476V11.081a.474.474,0,0,0-.476-.476H196.131a.474.474,0,0,0-.476.476l.212,17.457-.212,18.621a.474.474,0,0,0,.476.476Zm16.4,0c9.945,0,18.621-5.872,18.621-18.515,0-12.114-8.094-18.515-18.727-18.515H223.534a.474.474,0,0,0-.476.476l.212,17.563-.212,18.515a.474.474,0,0,0,.476.476Zm-7.353-19.1c0-3.333.159-13.913.159-13.966h7.406c7.353,0,13.331,4.761,13.331,14.548,0,10.263-6.56,14.548-13.119,14.548h-7.618C228.136,43.615,227.978,31.977,227.978,28.539ZM263.739,32.4l6.136-18.2,6.242,18.2ZM286.01,47.636a.316.316,0,0,0,.317-.423L273.472,11.029a.784.784,0,0,0-.635-.423h-5.5a.784.784,0,0,0-.635.423L253.74,47.213a.339.339,0,0,0,.317.423h4.073a.741.741,0,0,0,.635-.476l3.544-10.58h15.235l3.65,10.58a.741.741,0,0,0,.635.476Zm33.433-18.78a.474.474,0,0,0-.476-.476H303.149a.474.474,0,0,0-.476.476v2.962a.474.474,0,0,0,.476.476h11.109c-.053,7.353-3.968,12.008-11.109,12.008-7.194,0-11.956-5.819-11.956-15.13,0-9.522,4.655-15.235,11.8-15.235,5.5,0,9.258,2.751,10.527,7.988a.62.62,0,0,0,.582.476h4.073a.371.371,0,0,0,.37-.476c-1.746-7.723-7.3-12.008-15.553-12.008-9.892,0-16.875,7.406-16.875,19.2,0,11.638,7.036,19.2,16.981,19.2C313.783,48.324,319.549,41.5,319.443,28.856Zm37.983.317c0-11.9-7.036-19.256-17.722-19.256s-17.669,7.406-17.669,19.256c0,11.532,6.983,19.15,17.669,19.15C350.337,48.324,357.426,40.759,357.426,29.173Zm-30.312,0c0-9.469,4.655-15.182,12.59-15.182,7.882,0,12.643,5.766,12.643,15.182S347.586,44.25,339.7,44.25C331.875,44.25,327.113,38.537,327.113,29.173Zm66.232-.317a.474.474,0,0,0-.476-.476H377.052a.474.474,0,0,0-.476.476v2.962a.474.474,0,0,0,.476.476h11.109c-.053,7.353-3.968,12.008-11.109,12.008-7.195,0-11.956-5.819-11.956-15.13,0-9.522,4.655-15.235,11.8-15.235,5.5,0,9.258,2.751,10.527,7.988A.62.62,0,0,0,388,22.4h4.073a.371.371,0,0,0,.37-.476c-1.746-7.723-7.3-12.008-15.553-12.008-9.892,0-16.875,7.406-16.875,19.2,0,11.638,7.036,19.2,16.981,19.2C387.685,48.324,393.451,41.5,393.345,28.856Zm8.464,18.78a.474.474,0,0,0,.476-.476L402.074,28.8l.212-17.722a.474.474,0,0,0-.476-.476h-4.073a.474.474,0,0,0-.476.476l.212,17.722L397.26,47.16a.474.474,0,0,0,.476.476Zm28.672,0a.474.474,0,0,0,.476-.476V44.144a.474.474,0,0,0-.476-.476h-18.2l-.212-13.807h16.717a.474.474,0,0,0,.476-.476V26.37a.474.474,0,0,0-.476-.476H412.072l.212-11.321h17.775a.474.474,0,0,0,.476-.476V11.081a.474.474,0,0,0-.476-.476H407.681a.474.474,0,0,0-.476.476l.212,17.457-.212,18.621a.474.474,0,0,0,.476.476Z" transform="translate(1317.771 580.936)"/>
    </g>
  </g>
</svg>
